# xmcd
#
# Track frame offsets:
#	150
#	9722
#	19555
#	30374
#	43409
#	53747
#	66185
#	77587
#	89528
#	103418
#	116151
#	128793
#	138672
#	150507
#	160474
#	171248
#	182353
#	193846
#	203927
#	217004
#	230827
#	243190
#	254319
#	266439
#	276139
#	287718
#	297639
#	310273
#	321052
#	335264
#
# Disc length: 4609 seconds
#
# Revision: 1
# Processed by: cddbd v1.5.2PL0 Copyright (c) Steve Scherf et al.
# Submitted via: audiograbber 1.83.01
#
DISCID=c411ff1e
DTITLE=Various Artist - Country Singles Vol. 4
DYEAR=1900
DGENRE=
TTITLE0=Charlie Moore and Bill Napier - Truck Driver's Queen
TTITLE1=Charlie Moore and Bill Napier - In A World Of Broken Hearts
TTITLE2=Hank Thompson - On Tap, In The Can, Or In The Bottle
TTITLE3=Hank Thompson - If I Lose You Tomorrow
TTITLE4=Osborne Brothers - Me And My Old Banjo
TTITLE5=Osborne Brothers - Hey, Hey, Bartender
TTITLE6=Kenny Price - Grass Won't Grow On A Busy Street
TTITLE7=Kenny Price - Somebody Told Mary
TTITLE8=Henson Cargill - She Still Comes To Me (To Pour The Wine)
TTITLE9=Henson Cargill - But You Know I Love You
TTITLE10=Eddy Arnold - I'm Letting You Go
TTITLE11=Eddy Arnold - The Days Gone By
TTITLE12=Tennessee Ernie Ford - Sixteen Tons
TTITLE13=Tennessee Ernie Ford - You Don't Have To Be A Baby To Cry
TTITLE14=Bill Anderson - Wild Week-end
TTITLE15=Bill Anderson - Fun While It Lasted
TTITLE16=Jim Ed Brown - Broad-Minded Man
TTITLE17=Jim Ed Brown - Helpin' Her Get Over Him
TTITLE18=Wynn Hammons - Tulsa Oklahoma Blue Skies
TTITLE19=Wynn Hammons - If I Were An Angel
TTITLE20=Red Foley and Roberta Lee - Night Train To Memphis
TTITLE21=Red Foley and Roberta Lee - If I Had-A Knowed, You Could-A Goed (I-Da 
TTITLE21=Seed You Had-A Way To Went)
TTITLE22=George Morgan - I'm Not Afraid
TTITLE23=George Morgan - Lovable You
TTITLE24=Conway Twitty - Darling, You Know I Wouldn't Lie
TTITLE25=Conway Twitty - Table In The Corner
TTITLE26=Tammy Wynette - Take Me To Your World
TTITLE27=Tammy Wynette - Good
TTITLE28=Onie Wheeler - Please Don't Plant Pretty Flowers
TTITLE29=Onie Wheeler - Which-A-Way, That-A-Way
EXTD=
EXTT0=
EXTT1=
EXTT2=
EXTT3=
EXTT4=
EXTT5=
EXTT6=
EXTT7=
EXTT8=
EXTT9=
EXTT10=
EXTT11=
EXTT12=
EXTT13=
EXTT14=
EXTT15=
EXTT16=
EXTT17=
EXTT18=
EXTT19=
EXTT20=
EXTT21=
EXTT22=
EXTT23=
EXTT24=
EXTT25=
EXTT26=
EXTT27=
EXTT28=
EXTT29=
PLAYORDER=
